<?xml version="1.0" standalone="no"?>
<!DOCTYPE svg PUBLIC "-//W3C//DTD SVG 20010904//EN"
 "http://www.w3.org/TR/2001/REC-SVG-20010904/DTD/svg10.dtd">
<svg version="1.0" xmlns="http://www.w3.org/2000/svg"
 width="260.000000pt" height="260.000000pt" viewBox="0 0 260.000000 260.000000"
 preserveAspectRatio="xMidYMid meet">
<metadata>
Created by potrace 1.11, written by Peter Selinger 2001-2013
</metadata>
<g transform="translate(0.000000,260.000000) scale(0.100000,-0.100000)"
fill="#000000" stroke="none">
<path d="M587 2048 c-63 -181 -63 -178 -47 -188 27 -17 41 -11 56 25 37 89
128 149 215 143 l44 -3 3 -344 c3 -388 4 -381 -70 -381 -34 0 -38 -3 -38 -25
l0 -25 187 -2 187 -3 13 -25 c9 -19 13 -105 13 -332 0 -364 -3 -377 -77 -378
-29 0 -33 -3 -33 -26 l0 -26 308 4 c286 3 310 5 352 24 102 47 150 115 150
212 0 81 -39 143 -113 177 -28 14 -61 25 -71 25 -11 0 4 12 34 28 77 39 113
88 118 160 5 80 -31 136 -114 178 l-59 29 -322 3 c-317 3 -323 4 -338 25 -13
18 -15 73 -15 348 0 180 3 334 6 343 10 27 91 21 155 -11 42 -22 61 -40 86
-82 18 -30 34 -58 36 -64 2 -6 13 -7 29 -1 l27 9 -42 125 c-32 95 -47 126 -61
128 -11 2 -23 -3 -28 -12 -8 -14 -40 -16 -264 -16 -217 0 -255 2 -260 15 -4 8
-14 15 -24 15 -13 0 -25 -19 -43 -72z m1023 -830 c61 -26 83 -59 82 -122 0
-63 -18 -96 -71 -128 -33 -21 -50 -23 -198 -27 l-163 -3 0 144 c0 80 3 148 8
152 13 15 304 0 342 -16z m30 -378 c85 -47 113 -155 60 -230 -12 -17 -41 -43
-64 -58 -38 -25 -50 -26 -183 -30 -79 -2 -154 -1 -168 2 l-25 6 0 171 0 171
168 -4 c156 -3 170 -5 212 -28z"/>
</g>
</svg>
